<?xml version="1.0" standalone="no"?>
<!DOCTYPE svg PUBLIC "-//W3C//DTD SVG 20010904//EN"
 "http://www.w3.org/TR/2001/REC-SVG-20010904/DTD/svg10.dtd">
<svg version="1.0" xmlns="http://www.w3.org/2000/svg"
 width="512.000000pt" height="512.000000pt" viewBox="0 0 512.000000 512.000000"
 preserveAspectRatio="xMidYMid meet">
<metadata>
Created by potrace 1.11, written by Peter Selinger 2001-2013
</metadata>
<g transform="translate(0.000000,512.000000) scale(0.100000,-0.100000)"
fill="#000000" stroke="none">
<path d="M485 5104 c-33 -8 -94 -31 -135 -51 -105 -52 -232 -178 -283 -283
-72 -148 -67 15 -67 -2210 0 -2224 -5 -2062 67 -2210 51 -104 177 -230 283
-282 142 -70 103 -68 1128 -68 l922 0 0 160 0 160 116 0 c105 0 115 -2 110
-17 -18 -60 -67 -295 -63 -300 3 -3 163 31 355 74 l350 80 136 84 c75 46 165
105 199 131 34 25 380 365 768 755 678 680 707 710 729 768 17 47 21 76 18
135 -5 116 -27 151 -202 326 -184 183 -211 199 -341 199 -123 0 -160 -19 -302
-159 l-113 -109 0 154 0 154 160 160 160 160 0 825 c0 917 2 889 -68 1030 -52
106 -178 232 -282 283 -147 71 -20 67 -1895 66 -1439 -1 -1699 -3 -1750 -15z"/>
</g>
</svg>
